<mxfile host="Electron" modified="2023-05-21T19:05:09.535Z" agent="Mozilla/5.0 (X11; Linux x86_64) AppleWebKit/537.36 (KHTML, like Gecko) draw.io/21.2.8 Chrome/112.0.5615.165 Electron/24.2.0 Safari/537.36" etag="aVEBohkZCl47G5ChALs-" version="21.2.8" type="device">
  <diagram name="2_1.1" id="AGk9PsbKG4yfcmLNKomX">
    <mxGraphModel dx="831" dy="850" grid="1" gridSize="10" guides="1" tooltips="1" connect="1" arrows="1" fold="1" page="1" pageScale="1" pageWidth="827" pageHeight="1169" math="0" shadow="0">
      <root>
        <mxCell id="_mP06q21zTchJCsDbkNZ-0" />
        <mxCell id="_mP06q21zTchJCsDbkNZ-1" parent="_mP06q21zTchJCsDbkNZ-0" />
        <mxCell id="jx_P5qmIkzRaP3UXuOam-67" style="edgeStyle=orthogonalEdgeStyle;rounded=0;orthogonalLoop=1;jettySize=auto;html=1;entryX=0;entryY=0.5;entryDx=0;entryDy=0;entryPerimeter=0;fontSize=10;" parent="_mP06q21zTchJCsDbkNZ-1" edge="1">
          <mxGeometry relative="1" as="geometry">
            <Array as="points">
              <mxPoint x="1622.08" y="360.08" />
              <mxPoint x="1622.08" y="531.0799999999999" />
            </Array>
            <mxPoint x="1592.0800000000004" y="531.0799999999999" as="targetPoint" />
          </mxGeometry>
        </mxCell>
        <mxCell id="jx_P5qmIkzRaP3UXuOam-68" value="Нет" style="edgeLabel;html=1;align=center;verticalAlign=middle;resizable=0;points=[];fontSize=10;" parent="jx_P5qmIkzRaP3UXuOam-67" vertex="1" connectable="0">
          <mxGeometry x="-0.9388" y="-1" relative="1" as="geometry">
            <mxPoint y="-11" as="offset" />
          </mxGeometry>
        </mxCell>
        <mxCell id="_O9GX9oBgAqIFVcC1bcC-0" style="vsdxID=5;fillColor=#FFFFFF;gradientColor=none;shape=stencil(nY9LDoAgDERP0z3SI/i5BwkoRAUC+Lu9kGo0Lt3NtK/tFLCOWngFnMUU3Kg2I5MGbIBzY7UKJmUF2ALWvQtqCG6xkrwXhSxqdmvZsNNcxViZ4ewgT64jdDL2hf4E7wsXmsWThd549765c4l+xvYE);strokeColor=#000000;strokeWidth=4;spacingTop=-1;spacingBottom=-1;spacingLeft=-1;spacingRight=-1;labelBackgroundColor=#ffffff;rounded=0;html=1;whiteSpace=wrap;fontFamily=GOST type B;fontSource=https%3A%2F%2Fdrive.google.com%2Fuc%3Fexport%3Ddownload%26id%3D1UrnLVkHcLbHLojcf2ejICCGZ1GY9liKW;" parent="_mP06q21zTchJCsDbkNZ-1" vertex="1">
          <mxGeometry x="900" y="937" width="740" height="220" as="geometry" />
        </mxCell>
        <mxCell id="_O9GX9oBgAqIFVcC1bcC-1" style="vsdxID=30;edgeStyle=none;startArrow=none;endArrow=none;startSize=5;endSize=5;strokeWidth=4;strokeColor=#000000;spacingTop=-1;spacingBottom=-1;spacingLeft=-1;spacingRight=-1;verticalAlign=middle;html=1;labelBackgroundColor=#ffffff;rounded=0;fontFamily=GOST type B;fontSource=https%3A%2F%2Fdrive.google.com%2Fuc%3Fexport%3Ddownload%26id%3D1UrnLVkHcLbHLojcf2ejICCGZ1GY9liKW;" parent="_mP06q21zTchJCsDbkNZ-1" edge="1">
          <mxGeometry relative="1" as="geometry">
            <Array as="points" />
            <mxPoint x="928" y="937" as="sourcePoint" />
            <mxPoint x="928" y="1037" as="targetPoint" />
          </mxGeometry>
        </mxCell>
        <mxCell id="_O9GX9oBgAqIFVcC1bcC-2" style="vsdxID=29;edgeStyle=none;startArrow=none;endArrow=none;startSize=5;endSize=5;strokeColor=#000000;spacingTop=-1;spacingBottom=-1;spacingLeft=-1;spacingRight=-1;verticalAlign=middle;html=1;labelBackgroundColor=#ffffff;rounded=0;fontFamily=GOST type B;fontSource=https%3A%2F%2Fdrive.google.com%2Fuc%3Fexport%3Ddownload%26id%3D1UrnLVkHcLbHLojcf2ejICCGZ1GY9liKW;" parent="_mP06q21zTchJCsDbkNZ-1" edge="1">
          <mxGeometry relative="1" as="geometry">
            <mxPoint as="offset" />
            <Array as="points" />
            <mxPoint x="900" y="1137" as="sourcePoint" />
            <mxPoint x="1160" y="1137" as="targetPoint" />
          </mxGeometry>
        </mxCell>
        <mxCell id="_O9GX9oBgAqIFVcC1bcC-3" style="vsdxID=28;edgeStyle=none;startArrow=none;endArrow=none;startSize=5;endSize=5;strokeColor=#000000;spacingTop=-1;spacingBottom=-1;spacingLeft=-1;spacingRight=-1;verticalAlign=middle;html=1;labelBackgroundColor=#ffffff;rounded=0;fontFamily=GOST type B;fontSource=https%3A%2F%2Fdrive.google.com%2Fuc%3Fexport%3Ddownload%26id%3D1UrnLVkHcLbHLojcf2ejICCGZ1GY9liKW;" parent="_mP06q21zTchJCsDbkNZ-1" edge="1">
          <mxGeometry relative="1" as="geometry">
            <mxPoint as="offset" />
            <Array as="points" />
            <mxPoint x="900" y="1117" as="sourcePoint" />
            <mxPoint x="1160" y="1117" as="targetPoint" />
          </mxGeometry>
        </mxCell>
        <mxCell id="_O9GX9oBgAqIFVcC1bcC-4" style="vsdxID=27;edgeStyle=none;startArrow=none;endArrow=none;startSize=5;endSize=5;strokeColor=#000000;spacingTop=-1;spacingBottom=-1;spacingLeft=-1;spacingRight=-1;verticalAlign=middle;html=1;labelBackgroundColor=#ffffff;rounded=0;fontFamily=GOST type B;fontSource=https%3A%2F%2Fdrive.google.com%2Fuc%3Fexport%3Ddownload%26id%3D1UrnLVkHcLbHLojcf2ejICCGZ1GY9liKW;" parent="_mP06q21zTchJCsDbkNZ-1" edge="1">
          <mxGeometry relative="1" as="geometry">
            <mxPoint as="offset" />
            <Array as="points" />
            <mxPoint x="900" y="1097" as="sourcePoint" />
            <mxPoint x="1160" y="1097" as="targetPoint" />
          </mxGeometry>
        </mxCell>
        <mxCell id="_O9GX9oBgAqIFVcC1bcC-5" style="vsdxID=26;edgeStyle=none;startArrow=none;endArrow=none;startSize=5;endSize=5;strokeColor=#000000;spacingTop=-1;spacingBottom=-1;spacingLeft=-1;spacingRight=-1;verticalAlign=middle;html=1;labelBackgroundColor=#ffffff;rounded=0;fontFamily=GOST type B;fontSource=https%3A%2F%2Fdrive.google.com%2Fuc%3Fexport%3Ddownload%26id%3D1UrnLVkHcLbHLojcf2ejICCGZ1GY9liKW;" parent="_mP06q21zTchJCsDbkNZ-1" edge="1">
          <mxGeometry relative="1" as="geometry">
            <mxPoint as="offset" />
            <Array as="points" />
            <mxPoint x="900" y="1077" as="sourcePoint" />
            <mxPoint x="1160" y="1077" as="targetPoint" />
          </mxGeometry>
        </mxCell>
        <mxCell id="_O9GX9oBgAqIFVcC1bcC-6" style="vsdxID=25;edgeStyle=none;startArrow=none;endArrow=none;startSize=5;endSize=5;strokeColor=#000000;spacingTop=-1;spacingBottom=-1;spacingLeft=-1;spacingRight=-1;verticalAlign=middle;html=1;labelBackgroundColor=#ffffff;rounded=0;fontFamily=GOST type B;fontSource=https%3A%2F%2Fdrive.google.com%2Fuc%3Fexport%3Ddownload%26id%3D1UrnLVkHcLbHLojcf2ejICCGZ1GY9liKW;" parent="_mP06q21zTchJCsDbkNZ-1" edge="1">
          <mxGeometry relative="1" as="geometry">
            <mxPoint as="offset" />
            <Array as="points" />
            <mxPoint x="900" y="1057" as="sourcePoint" />
            <mxPoint x="1160" y="1057" as="targetPoint" />
          </mxGeometry>
        </mxCell>
        <mxCell id="_O9GX9oBgAqIFVcC1bcC-7" style="vsdxID=24;edgeStyle=none;startArrow=none;endArrow=none;startSize=5;endSize=5;strokeWidth=4;strokeColor=#000000;spacingTop=-1;spacingBottom=-1;spacingLeft=-1;spacingRight=-1;verticalAlign=middle;html=1;labelBackgroundColor=#ffffff;rounded=0;fontFamily=GOST type B;fontSource=https%3A%2F%2Fdrive.google.com%2Fuc%3Fexport%3Ddownload%26id%3D1UrnLVkHcLbHLojcf2ejICCGZ1GY9liKW;" parent="_mP06q21zTchJCsDbkNZ-1" edge="1">
          <mxGeometry relative="1" as="geometry">
            <mxPoint as="offset" />
            <Array as="points" />
            <mxPoint x="900" y="1037" as="sourcePoint" />
            <mxPoint x="1160" y="1037" as="targetPoint" />
          </mxGeometry>
        </mxCell>
        <mxCell id="_O9GX9oBgAqIFVcC1bcC-8" style="vsdxID=23;edgeStyle=none;startArrow=none;endArrow=none;startSize=5;endSize=5;strokeWidth=4;strokeColor=#000000;spacingTop=-1;spacingBottom=-1;spacingLeft=-1;spacingRight=-1;verticalAlign=middle;html=1;labelBackgroundColor=#ffffff;rounded=0;fontFamily=GOST type B;fontSource=https%3A%2F%2Fdrive.google.com%2Fuc%3Fexport%3Ddownload%26id%3D1UrnLVkHcLbHLojcf2ejICCGZ1GY9liKW;" parent="_mP06q21zTchJCsDbkNZ-1" edge="1">
          <mxGeometry relative="1" as="geometry">
            <mxPoint as="offset" />
            <Array as="points" />
            <mxPoint x="900" y="1017" as="sourcePoint" />
            <mxPoint x="1160" y="1017" as="targetPoint" />
          </mxGeometry>
        </mxCell>
        <mxCell id="_O9GX9oBgAqIFVcC1bcC-9" style="vsdxID=22;edgeStyle=none;startArrow=none;endArrow=none;startSize=5;endSize=5;strokeColor=#000000;spacingTop=-1;spacingBottom=-1;spacingLeft=-1;spacingRight=-1;verticalAlign=middle;html=1;labelBackgroundColor=#ffffff;rounded=0;fontFamily=GOST type B;fontSource=https%3A%2F%2Fdrive.google.com%2Fuc%3Fexport%3Ddownload%26id%3D1UrnLVkHcLbHLojcf2ejICCGZ1GY9liKW;" parent="_mP06q21zTchJCsDbkNZ-1" edge="1">
          <mxGeometry relative="1" as="geometry">
            <mxPoint as="offset" />
            <Array as="points" />
            <mxPoint x="900" y="997" as="sourcePoint" />
            <mxPoint x="1160" y="997" as="targetPoint" />
          </mxGeometry>
        </mxCell>
        <mxCell id="_O9GX9oBgAqIFVcC1bcC-10" style="vsdxID=21;edgeStyle=none;startArrow=none;endArrow=none;startSize=5;endSize=5;strokeColor=#000000;spacingTop=-1;spacingBottom=-1;spacingLeft=-1;spacingRight=-1;verticalAlign=middle;html=1;labelBackgroundColor=#ffffff;rounded=0;fontFamily=GOST type B;fontSource=https%3A%2F%2Fdrive.google.com%2Fuc%3Fexport%3Ddownload%26id%3D1UrnLVkHcLbHLojcf2ejICCGZ1GY9liKW;" parent="_mP06q21zTchJCsDbkNZ-1" edge="1">
          <mxGeometry relative="1" as="geometry">
            <mxPoint as="offset" />
            <Array as="points" />
            <mxPoint x="900" y="977" as="sourcePoint" />
            <mxPoint x="1160" y="977" as="targetPoint" />
          </mxGeometry>
        </mxCell>
        <mxCell id="_O9GX9oBgAqIFVcC1bcC-11" style="vsdxID=20;edgeStyle=none;startArrow=none;endArrow=none;startSize=5;endSize=5;strokeColor=#000000;spacingTop=-1;spacingBottom=-1;spacingLeft=-1;spacingRight=-1;verticalAlign=middle;html=1;labelBackgroundColor=#ffffff;rounded=0;fontFamily=GOST type B;fontSource=https%3A%2F%2Fdrive.google.com%2Fuc%3Fexport%3Ddownload%26id%3D1UrnLVkHcLbHLojcf2ejICCGZ1GY9liKW;" parent="_mP06q21zTchJCsDbkNZ-1" edge="1">
          <mxGeometry relative="1" as="geometry">
            <mxPoint as="offset" />
            <Array as="points" />
            <mxPoint x="900" y="957" as="sourcePoint" />
            <mxPoint x="1160" y="957" as="targetPoint" />
          </mxGeometry>
        </mxCell>
        <mxCell id="_O9GX9oBgAqIFVcC1bcC-12" style="vsdxID=19;edgeStyle=none;startArrow=none;endArrow=none;startSize=5;endSize=5;strokeWidth=4;strokeColor=#000000;spacingTop=-1;spacingBottom=-1;spacingLeft=-1;spacingRight=-1;verticalAlign=middle;html=1;labelBackgroundColor=#ffffff;rounded=0;fontFamily=GOST type B;fontSource=https%3A%2F%2Fdrive.google.com%2Fuc%3Fexport%3Ddownload%26id%3D1UrnLVkHcLbHLojcf2ejICCGZ1GY9liKW;" parent="_mP06q21zTchJCsDbkNZ-1" edge="1">
          <mxGeometry relative="1" as="geometry">
            <Array as="points" />
            <mxPoint x="968" y="937" as="sourcePoint" />
            <mxPoint x="968" y="1157" as="targetPoint" />
          </mxGeometry>
        </mxCell>
        <mxCell id="_O9GX9oBgAqIFVcC1bcC-13" style="vsdxID=18;edgeStyle=none;startArrow=none;endArrow=none;startSize=5;endSize=5;strokeWidth=4;strokeColor=#000000;spacingTop=-1;spacingBottom=-1;spacingLeft=-1;spacingRight=-1;verticalAlign=middle;html=1;labelBackgroundColor=#ffffff;rounded=0;fontFamily=GOST type B;fontSource=https%3A%2F%2Fdrive.google.com%2Fuc%3Fexport%3Ddownload%26id%3D1UrnLVkHcLbHLojcf2ejICCGZ1GY9liKW;" parent="_mP06q21zTchJCsDbkNZ-1" edge="1">
          <mxGeometry relative="1" as="geometry">
            <Array as="points" />
            <mxPoint x="1060" y="937" as="sourcePoint" />
            <mxPoint x="1060" y="1157" as="targetPoint" />
          </mxGeometry>
        </mxCell>
        <mxCell id="_O9GX9oBgAqIFVcC1bcC-14" style="vsdxID=17;edgeStyle=none;startArrow=none;endArrow=none;startSize=5;endSize=5;strokeWidth=4;strokeColor=#000000;spacingTop=-1;spacingBottom=-1;spacingLeft=-1;spacingRight=-1;verticalAlign=middle;html=1;labelBackgroundColor=#ffffff;rounded=0;fontFamily=GOST type B;fontSource=https%3A%2F%2Fdrive.google.com%2Fuc%3Fexport%3Ddownload%26id%3D1UrnLVkHcLbHLojcf2ejICCGZ1GY9liKW;" parent="_mP06q21zTchJCsDbkNZ-1" edge="1">
          <mxGeometry relative="1" as="geometry">
            <Array as="points" />
            <mxPoint x="1120" y="937" as="sourcePoint" />
            <mxPoint x="1120" y="1157" as="targetPoint" />
          </mxGeometry>
        </mxCell>
        <mxCell id="_O9GX9oBgAqIFVcC1bcC-15" style="vsdxID=16;edgeStyle=none;startArrow=none;endArrow=none;startSize=5;endSize=5;strokeWidth=4;strokeColor=#000000;spacingTop=-1;spacingBottom=-1;spacingLeft=-1;spacingRight=-1;verticalAlign=middle;html=1;labelBackgroundColor=#ffffff;rounded=0;fontFamily=GOST type B;fontSource=https%3A%2F%2Fdrive.google.com%2Fuc%3Fexport%3Ddownload%26id%3D1UrnLVkHcLbHLojcf2ejICCGZ1GY9liKW;" parent="_mP06q21zTchJCsDbkNZ-1" edge="1">
          <mxGeometry relative="1" as="geometry">
            <Array as="points" />
            <mxPoint x="1570" y="997" as="sourcePoint" />
            <mxPoint x="1570" y="1077" as="targetPoint" />
          </mxGeometry>
        </mxCell>
        <mxCell id="_O9GX9oBgAqIFVcC1bcC-16" style="vsdxID=15;edgeStyle=none;startArrow=none;endArrow=none;startSize=5;endSize=5;strokeWidth=4;strokeColor=#000000;spacingTop=-1;spacingBottom=-1;spacingLeft=-1;spacingRight=-1;verticalAlign=middle;html=1;labelBackgroundColor=#ffffff;rounded=0;fontFamily=GOST type B;fontSource=https%3A%2F%2Fdrive.google.com%2Fuc%3Fexport%3Ddownload%26id%3D1UrnLVkHcLbHLojcf2ejICCGZ1GY9liKW;" parent="_mP06q21zTchJCsDbkNZ-1" edge="1">
          <mxGeometry relative="1" as="geometry">
            <Array as="points" />
            <mxPoint x="1520" y="1077" as="sourcePoint" />
            <mxPoint x="1520" y="1097" as="targetPoint" />
          </mxGeometry>
        </mxCell>
        <mxCell id="_O9GX9oBgAqIFVcC1bcC-17" style="vsdxID=14;edgeStyle=none;startArrow=none;endArrow=none;startSize=5;endSize=5;strokeColor=#000000;spacingTop=-1;spacingBottom=-1;spacingLeft=-1;spacingRight=-1;verticalAlign=middle;html=1;labelBackgroundColor=#ffffff;rounded=0;fontFamily=GOST type B;fontSource=https%3A%2F%2Fdrive.google.com%2Fuc%3Fexport%3Ddownload%26id%3D1UrnLVkHcLbHLojcf2ejICCGZ1GY9liKW;" parent="_mP06q21zTchJCsDbkNZ-1" edge="1">
          <mxGeometry relative="1" as="geometry">
            <Array as="points" />
            <mxPoint x="1480" y="1017" as="sourcePoint" />
            <mxPoint x="1480" y="1077" as="targetPoint" />
          </mxGeometry>
        </mxCell>
        <mxCell id="_O9GX9oBgAqIFVcC1bcC-18" style="vsdxID=13;edgeStyle=none;startArrow=none;endArrow=none;startSize=5;endSize=5;strokeColor=#000000;spacingTop=-1;spacingBottom=-1;spacingLeft=-1;spacingRight=-1;verticalAlign=middle;html=1;labelBackgroundColor=#ffffff;rounded=0;fontFamily=GOST type B;fontSource=https%3A%2F%2Fdrive.google.com%2Fuc%3Fexport%3Ddownload%26id%3D1UrnLVkHcLbHLojcf2ejICCGZ1GY9liKW;" parent="_mP06q21zTchJCsDbkNZ-1" edge="1">
          <mxGeometry relative="1" as="geometry">
            <Array as="points" />
            <mxPoint x="1460" y="1017" as="sourcePoint" />
            <mxPoint x="1460" y="1077" as="targetPoint" />
          </mxGeometry>
        </mxCell>
        <mxCell id="_O9GX9oBgAqIFVcC1bcC-19" style="vsdxID=12;edgeStyle=none;startArrow=none;endArrow=none;startSize=5;endSize=5;strokeWidth=4;strokeColor=#000000;spacingTop=-1;spacingBottom=-1;spacingLeft=-1;spacingRight=-1;verticalAlign=middle;html=1;labelBackgroundColor=#ffffff;rounded=0;fontFamily=GOST type B;fontSource=https%3A%2F%2Fdrive.google.com%2Fuc%3Fexport%3Ddownload%26id%3D1UrnLVkHcLbHLojcf2ejICCGZ1GY9liKW;" parent="_mP06q21zTchJCsDbkNZ-1" edge="1">
          <mxGeometry relative="1" as="geometry">
            <Array as="points" />
            <mxPoint x="1500" y="997" as="sourcePoint" />
            <mxPoint x="1500" y="1077" as="targetPoint" />
          </mxGeometry>
        </mxCell>
        <mxCell id="_O9GX9oBgAqIFVcC1bcC-20" style="vsdxID=11;edgeStyle=none;startArrow=none;endArrow=none;startSize=5;endSize=5;strokeWidth=4;strokeColor=#000000;spacingTop=-1;spacingBottom=-1;spacingLeft=-1;spacingRight=-1;verticalAlign=middle;html=1;labelBackgroundColor=#ffffff;rounded=0;fontFamily=GOST type B;fontSource=https%3A%2F%2Fdrive.google.com%2Fuc%3Fexport%3Ddownload%26id%3D1UrnLVkHcLbHLojcf2ejICCGZ1GY9liKW;" parent="_mP06q21zTchJCsDbkNZ-1" edge="1">
          <mxGeometry relative="1" as="geometry">
            <mxPoint as="offset" />
            <Array as="points" />
            <mxPoint x="1440" y="1077" as="sourcePoint" />
            <mxPoint x="1640" y="1077" as="targetPoint" />
          </mxGeometry>
        </mxCell>
        <mxCell id="_O9GX9oBgAqIFVcC1bcC-21" style="vsdxID=10;edgeStyle=none;startArrow=none;endArrow=none;startSize=5;endSize=5;strokeWidth=4;strokeColor=#000000;spacingTop=-1;spacingBottom=-1;spacingLeft=-1;spacingRight=-1;verticalAlign=middle;html=1;labelBackgroundColor=#ffffff;rounded=0;fontFamily=GOST type B;fontSource=https%3A%2F%2Fdrive.google.com%2Fuc%3Fexport%3Ddownload%26id%3D1UrnLVkHcLbHLojcf2ejICCGZ1GY9liKW;" parent="_mP06q21zTchJCsDbkNZ-1" edge="1">
          <mxGeometry relative="1" as="geometry">
            <mxPoint as="offset" />
            <Array as="points" />
            <mxPoint x="1440" y="1017" as="sourcePoint" />
            <mxPoint x="1640" y="1017" as="targetPoint" />
          </mxGeometry>
        </mxCell>
        <mxCell id="_O9GX9oBgAqIFVcC1bcC-22" style="vsdxID=9;edgeStyle=none;startArrow=none;endArrow=none;startSize=5;endSize=5;strokeWidth=4;strokeColor=#000000;spacingTop=-1;spacingBottom=-1;spacingLeft=-1;spacingRight=-1;verticalAlign=middle;html=1;labelBackgroundColor=#ffffff;rounded=0;fontFamily=GOST type B;fontSource=https%3A%2F%2Fdrive.google.com%2Fuc%3Fexport%3Ddownload%26id%3D1UrnLVkHcLbHLojcf2ejICCGZ1GY9liKW;" parent="_mP06q21zTchJCsDbkNZ-1" edge="1">
          <mxGeometry relative="1" as="geometry">
            <Array as="points" />
            <mxPoint x="1440" y="997" as="sourcePoint" />
            <mxPoint x="1440" y="1157" as="targetPoint" />
          </mxGeometry>
        </mxCell>
        <mxCell id="_O9GX9oBgAqIFVcC1bcC-23" style="vsdxID=8;edgeStyle=none;startArrow=none;endArrow=none;startSize=5;endSize=5;strokeWidth=4;strokeColor=#000000;spacingTop=-1;spacingBottom=-1;spacingLeft=-1;spacingRight=-1;verticalAlign=middle;html=1;labelBackgroundColor=#ffffff;rounded=0;fontFamily=GOST type B;fontSource=https%3A%2F%2Fdrive.google.com%2Fuc%3Fexport%3Ddownload%26id%3D1UrnLVkHcLbHLojcf2ejICCGZ1GY9liKW;" parent="_mP06q21zTchJCsDbkNZ-1" edge="1">
          <mxGeometry relative="1" as="geometry">
            <Array as="points" />
            <mxPoint x="1640" y="1097" as="sourcePoint" />
            <mxPoint x="1160" y="1097" as="targetPoint" />
          </mxGeometry>
        </mxCell>
        <mxCell id="_O9GX9oBgAqIFVcC1bcC-24" style="vsdxID=7;edgeStyle=none;startArrow=none;endArrow=none;startSize=5;endSize=5;strokeWidth=4;strokeColor=#000000;spacingTop=-1;spacingBottom=-1;spacingLeft=-1;spacingRight=-1;verticalAlign=middle;html=1;labelBackgroundColor=#ffffff;rounded=0;fontFamily=GOST type B;fontSource=https%3A%2F%2Fdrive.google.com%2Fuc%3Fexport%3Ddownload%26id%3D1UrnLVkHcLbHLojcf2ejICCGZ1GY9liKW;" parent="_mP06q21zTchJCsDbkNZ-1" edge="1">
          <mxGeometry relative="1" as="geometry">
            <Array as="points" />
            <mxPoint x="1160" y="937" as="sourcePoint" />
            <mxPoint x="1160" y="1157" as="targetPoint" />
          </mxGeometry>
        </mxCell>
        <mxCell id="_O9GX9oBgAqIFVcC1bcC-25" style="vsdxID=6;edgeStyle=none;startArrow=none;endArrow=none;startSize=5;endSize=5;strokeWidth=4;strokeColor=#000000;spacingTop=-1;spacingBottom=-1;spacingLeft=-1;spacingRight=-1;verticalAlign=middle;html=1;labelBackgroundColor=#ffffff;rounded=0;fontFamily=GOST type B;fontSource=https%3A%2F%2Fdrive.google.com%2Fuc%3Fexport%3Ddownload%26id%3D1UrnLVkHcLbHLojcf2ejICCGZ1GY9liKW;" parent="_mP06q21zTchJCsDbkNZ-1" edge="1">
          <mxGeometry relative="1" as="geometry">
            <Array as="points" />
            <mxPoint x="1640" y="997" as="sourcePoint" />
            <mxPoint x="1160" y="997" as="targetPoint" />
          </mxGeometry>
        </mxCell>
        <mxCell id="_O9GX9oBgAqIFVcC1bcC-26" value="&lt;font style=&quot;font-size: 11px; color: rgb(0, 0, 0); direction: ltr; letter-spacing: 0px; line-height: 120%; opacity: 1;&quot;&gt;&lt;i&gt;Изм&lt;br&gt;&lt;/i&gt;&lt;/font&gt;" style="verticalAlign=middle;align=center;vsdxID=31;fillColor=none;gradientColor=none;shape=stencil(nZBLDoAgDERP0z3SIyjew0SURgSD+Lu9kMZoXLhwN9O+tukAlrNpJg1SzDH4QW/URgNYgZTkjA4UkwJUgGXng+6DX1zLfmoymdXo17xh5zmRJ6Q42BWCfc2oJfdAr+Yv+AP9Cb7OJ3H/2JG1HNGz/84klThPVCc=);strokeColor=none;strokeWidth=4;spacingTop=-1;spacingBottom=-1;spacingLeft=-1;spacingRight=-1;labelBackgroundColor=none;rounded=0;html=1;whiteSpace=wrap;fontFamily=GOST type B;fontSource=https%3A%2F%2Fdrive.google.com%2Fuc%3Fexport%3Ddownload%26id%3D1UrnLVkHcLbHLojcf2ejICCGZ1GY9liKW;" parent="_mP06q21zTchJCsDbkNZ-1" vertex="1">
          <mxGeometry x="900" y="1019" width="27" height="16" as="geometry" />
        </mxCell>
        <mxCell id="_O9GX9oBgAqIFVcC1bcC-27" value="&lt;font style=&quot;font-size: 11px; color: rgb(0, 0, 0); direction: ltr; letter-spacing: 0px; line-height: 120%; opacity: 1;&quot;&gt;&lt;i&gt;Лист&lt;br&gt;&lt;/i&gt;&lt;/font&gt;" style="verticalAlign=middle;align=center;vsdxID=32;fillColor=none;gradientColor=none;shape=stencil(nZBLDoAgDERP0z3SIyjew0SURgSD+Lu9kMZoXLhwN9O+tukAlrNpJg1SzDH4QW/URgNYgZTkjA4UkwJUgGXng+6DX1zLfmoymdXo17xh5zmRJ6Q42BWCfc2oJfdAr+Yv+AP9Cb7OJ3H/2JG1HNGz/84klThPVCc=);strokeColor=none;strokeWidth=4;spacingTop=-1;spacingBottom=-1;spacingLeft=-1;spacingRight=-1;labelBackgroundColor=none;rounded=0;html=1;whiteSpace=wrap;fontFamily=GOST type B;fontSource=https%3A%2F%2Fdrive.google.com%2Fuc%3Fexport%3Ddownload%26id%3D1UrnLVkHcLbHLojcf2ejICCGZ1GY9liKW;" parent="_mP06q21zTchJCsDbkNZ-1" vertex="1">
          <mxGeometry x="930" y="1019" width="36" height="16" as="geometry" />
        </mxCell>
        <mxCell id="_O9GX9oBgAqIFVcC1bcC-28" value="&lt;font style=&quot;font-size: 11px; color: rgb(0, 0, 0); direction: ltr; letter-spacing: 0px; line-height: 120%; opacity: 1;&quot;&gt;&lt;i&gt;№ документа&lt;br&gt;&lt;/i&gt;&lt;/font&gt;" style="verticalAlign=middle;align=center;vsdxID=33;fillColor=none;gradientColor=none;shape=stencil(nZBLDoAgDERP0z3SIyjew0SURgSD+Lu9kMZoXLhwN9O+tukAlrNpJg1SzDH4QW/URgNYgZTkjA4UkwJUgGXng+6DX1zLfmoymdXo17xh5zmRJ6Q42BWCfc2oJfdAr+Yv+AP9Cb7OJ3H/2JG1HNGz/84klThPVCc=);strokeColor=none;strokeWidth=4;spacingTop=-1;spacingBottom=-1;spacingLeft=-1;spacingRight=-1;labelBackgroundColor=none;rounded=0;html=1;whiteSpace=wrap;fontFamily=GOST type B;fontSource=https%3A%2F%2Fdrive.google.com%2Fuc%3Fexport%3Ddownload%26id%3D1UrnLVkHcLbHLojcf2ejICCGZ1GY9liKW;" parent="_mP06q21zTchJCsDbkNZ-1" vertex="1">
          <mxGeometry x="970" y="1019" width="88" height="16" as="geometry" />
        </mxCell>
        <mxCell id="_O9GX9oBgAqIFVcC1bcC-29" value="&lt;font style=&quot;font-size: 11px; color: rgb(0, 0, 0); direction: ltr; letter-spacing: 0px; line-height: 120%; opacity: 1;&quot;&gt;&lt;i&gt;Подпись&lt;br&gt;&lt;/i&gt;&lt;/font&gt;" style="verticalAlign=middle;align=center;vsdxID=34;fillColor=none;gradientColor=none;shape=stencil(nZBLDoAgDERP0z3SIyjew0SURgSD+Lu9kMZoXLhwN9O+tukAlrNpJg1SzDH4QW/URgNYgZTkjA4UkwJUgGXng+6DX1zLfmoymdXo17xh5zmRJ6Q42BWCfc2oJfdAr+Yv+AP9Cb7OJ3H/2JG1HNGz/84klThPVCc=);strokeColor=none;strokeWidth=4;spacingTop=-1;spacingBottom=-1;spacingLeft=-1;spacingRight=-1;labelBackgroundColor=none;rounded=0;html=1;whiteSpace=wrap;fontFamily=GOST type B;fontSource=https%3A%2F%2Fdrive.google.com%2Fuc%3Fexport%3Ddownload%26id%3D1UrnLVkHcLbHLojcf2ejICCGZ1GY9liKW;" parent="_mP06q21zTchJCsDbkNZ-1" vertex="1">
          <mxGeometry x="1062" y="1019" width="56" height="16" as="geometry" />
        </mxCell>
        <mxCell id="_O9GX9oBgAqIFVcC1bcC-30" value="&lt;font style=&quot;font-size: 11px; color: rgb(0, 0, 0); direction: ltr; letter-spacing: 0px; line-height: 120%; opacity: 1;&quot;&gt;&lt;i&gt;Дата&lt;br&gt;&lt;/i&gt;&lt;/font&gt;" style="verticalAlign=middle;align=center;vsdxID=35;fillColor=none;gradientColor=none;shape=stencil(nZBLDoAgDERP0z3SIyjew0SURgSD+Lu9kMZoXLhwN9O+tukAlrNpJg1SzDH4QW/URgNYgZTkjA4UkwJUgGXng+6DX1zLfmoymdXo17xh5zmRJ6Q42BWCfc2oJfdAr+Yv+AP9Cb7OJ3H/2JG1HNGz/84klThPVCc=);strokeColor=none;strokeWidth=4;spacingTop=-1;spacingBottom=-1;spacingLeft=-1;spacingRight=-1;labelBackgroundColor=none;rounded=0;html=1;whiteSpace=wrap;fontFamily=GOST type B;fontSource=https%3A%2F%2Fdrive.google.com%2Fuc%3Fexport%3Ddownload%26id%3D1UrnLVkHcLbHLojcf2ejICCGZ1GY9liKW;" parent="_mP06q21zTchJCsDbkNZ-1" vertex="1">
          <mxGeometry x="1122" y="1019" width="36" height="16" as="geometry" />
        </mxCell>
        <mxCell id="_O9GX9oBgAqIFVcC1bcC-31" value="&lt;font style=&quot;font-size: 11px; color: rgb(0, 0, 0); direction: ltr; letter-spacing: 0px; line-height: 120%; opacity: 1;&quot;&gt;&lt;i&gt;Лит.&lt;br&gt;&lt;/i&gt;&lt;/font&gt;" style="verticalAlign=middle;align=center;vsdxID=36;fillColor=none;gradientColor=none;shape=stencil(nZBLDoAgDERP0z3SIyjew0SURgSD+Lu9kMZoXLhwN9O+tukAlrNpJg1SzDH4QW/URgNYgZTkjA4UkwJUgGXng+6DX1zLfmoymdXo17xh5zmRJ6Q42BWCfc2oJfdAr+Yv+AP9Cb7OJ3H/2JG1HNGz/84klThPVCc=);strokeColor=none;strokeWidth=4;spacingTop=-1;spacingBottom=-1;spacingLeft=-1;spacingRight=-1;labelBackgroundColor=none;rounded=0;html=1;whiteSpace=wrap;fontFamily=GOST type B;fontSource=https%3A%2F%2Fdrive.google.com%2Fuc%3Fexport%3Ddownload%26id%3D1UrnLVkHcLbHLojcf2ejICCGZ1GY9liKW;" parent="_mP06q21zTchJCsDbkNZ-1" vertex="1">
          <mxGeometry x="1442" y="999" width="56" height="16" as="geometry" />
        </mxCell>
        <mxCell id="_O9GX9oBgAqIFVcC1bcC-32" value="&lt;font style=&quot;font-size: 11px; color: rgb(0, 0, 0); direction: ltr; letter-spacing: 0px; line-height: 120%; opacity: 1;&quot;&gt;&lt;i&gt;Масса&lt;br&gt;&lt;/i&gt;&lt;/font&gt;" style="verticalAlign=middle;align=center;vsdxID=37;fillColor=none;gradientColor=none;shape=stencil(nZBLDoAgDERP0z3SIyjew0SURgSD+Lu9kMZoXLhwN9O+tukAlrNpJg1SzDH4QW/URgNYgZTkjA4UkwJUgGXng+6DX1zLfmoymdXo17xh5zmRJ6Q42BWCfc2oJfdAr+Yv+AP9Cb7OJ3H/2JG1HNGz/84klThPVCc=);strokeColor=none;strokeWidth=4;spacingTop=-1;spacingBottom=-1;spacingLeft=-1;spacingRight=-1;labelBackgroundColor=none;rounded=0;html=1;whiteSpace=wrap;fontFamily=GOST type B;fontSource=https%3A%2F%2Fdrive.google.com%2Fuc%3Fexport%3Ddownload%26id%3D1UrnLVkHcLbHLojcf2ejICCGZ1GY9liKW;" parent="_mP06q21zTchJCsDbkNZ-1" vertex="1">
          <mxGeometry x="1502" y="999" width="66" height="16" as="geometry" />
        </mxCell>
        <mxCell id="_O9GX9oBgAqIFVcC1bcC-33" value="&lt;font style=&quot;font-size: 11px; color: rgb(0, 0, 0); direction: ltr; letter-spacing: 0px; line-height: 120%; opacity: 1;&quot;&gt;&lt;i&gt;Масштаб&lt;br&gt;&lt;/i&gt;&lt;/font&gt;" style="verticalAlign=middle;align=center;vsdxID=38;fillColor=none;gradientColor=none;shape=stencil(nZBLDoAgDERP0z3SIyjew0SURgSD+Lu9kMZoXLhwN9O+tukAlrNpJg1SzDH4QW/URgNYgZTkjA4UkwJUgGXng+6DX1zLfmoymdXo17xh5zmRJ6Q42BWCfc2oJfdAr+Yv+AP9Cb7OJ3H/2JG1HNGz/84klThPVCc=);strokeColor=none;strokeWidth=4;spacingTop=-1;spacingBottom=-1;spacingLeft=-1;spacingRight=-1;labelBackgroundColor=none;rounded=0;html=1;whiteSpace=wrap;fontFamily=GOST type B;fontSource=https%3A%2F%2Fdrive.google.com%2Fuc%3Fexport%3Ddownload%26id%3D1UrnLVkHcLbHLojcf2ejICCGZ1GY9liKW;" parent="_mP06q21zTchJCsDbkNZ-1" vertex="1">
          <mxGeometry x="1572" y="999" width="66" height="16" as="geometry" />
        </mxCell>
        <mxCell id="_O9GX9oBgAqIFVcC1bcC-34" value="&lt;font style=&quot;font-size: 11px; color: rgb(0, 0, 0); direction: ltr; letter-spacing: 0px; line-height: 120%; opacity: 1;&quot;&gt;&lt;i&gt;Лист 1&lt;br&gt;&lt;/i&gt;&lt;/font&gt;" style="verticalAlign=middle;align=center;vsdxID=39;fillColor=none;gradientColor=none;shape=stencil(nZBLDoAgDERP0z3SIyjew0SURgSD+Lu9kMZoXLhwN9O+tukAlrNpJg1SzDH4QW/URgNYgZTkjA4UkwJUgGXng+6DX1zLfmoymdXo17xh5zmRJ6Q42BWCfc2oJfdAr+Yv+AP9Cb7OJ3H/2JG1HNGz/84klThPVCc=);strokeColor=none;strokeWidth=4;spacingTop=-1;spacingBottom=-1;spacingLeft=-1;spacingRight=-1;labelBackgroundColor=none;rounded=0;html=1;whiteSpace=wrap;fontFamily=GOST type B;fontSource=https%3A%2F%2Fdrive.google.com%2Fuc%3Fexport%3Ddownload%26id%3D1UrnLVkHcLbHLojcf2ejICCGZ1GY9liKW;" parent="_mP06q21zTchJCsDbkNZ-1" vertex="1">
          <mxGeometry x="1442" y="1079" width="76" height="16" as="geometry" />
        </mxCell>
        <mxCell id="_O9GX9oBgAqIFVcC1bcC-35" value="&lt;font style=&quot;font-size: 11px; color: rgb(0, 0, 0); direction: ltr; letter-spacing: 0px; line-height: 120%; opacity: 1;&quot;&gt;&lt;i&gt;Листов 1&amp;nbsp;&lt;br&gt;&lt;/i&gt;&lt;/font&gt;" style="verticalAlign=middle;align=center;vsdxID=40;fillColor=none;gradientColor=none;shape=stencil(nZBLDoAgDERP0z3SIyjew0SURgSD+Lu9kMZoXLhwN9O+tukAlrNpJg1SzDH4QW/URgNYgZTkjA4UkwJUgGXng+6DX1zLfmoymdXo17xh5zmRJ6Q42BWCfc2oJfdAr+Yv+AP9Cb7OJ3H/2JG1HNGz/84klThPVCc=);strokeColor=none;strokeWidth=4;spacingTop=-1;spacingBottom=-1;spacingLeft=-1;spacingRight=-1;labelBackgroundColor=none;rounded=0;html=1;whiteSpace=wrap;fontFamily=GOST type B;fontSource=https%3A%2F%2Fdrive.google.com%2Fuc%3Fexport%3Ddownload%26id%3D1UrnLVkHcLbHLojcf2ejICCGZ1GY9liKW;" parent="_mP06q21zTchJCsDbkNZ-1" vertex="1">
          <mxGeometry x="1522" y="1079" width="116" height="16" as="geometry" />
        </mxCell>
        <mxCell id="_O9GX9oBgAqIFVcC1bcC-36" value="&lt;p style=&quot;margin-left: 0 ; margin-right: 0 ; margin-top: 0px ; margin-bottom: 0px ; text-indent: 0 ; direction: rtl&quot;&gt;&lt;font style=&quot;font-size: 14px; color: rgb(0, 0, 0); direction: ltr; letter-spacing: 0px; line-height: 120%; opacity: 1;&quot;&gt;&lt;i&gt;Разраб&lt;br&gt;&lt;/i&gt;&lt;/font&gt;&lt;/p&gt;" style="verticalAlign=middle;align=left;vsdxID=41;fillColor=none;gradientColor=none;shape=stencil(nZBLDoAgDERP0z3SIyjew0SURgSD+Lu9kMZoXLhwN9O+tukAlrNpJg1SzDH4QW/URgNYgZTkjA4UkwJUgGXng+6DX1zLfmoymdXo17xh5zmRJ6Q42BWCfc2oJfdAr+Yv+AP9Cb7OJ3H/2JG1HNGz/84klThPVCc=);strokeColor=none;strokeWidth=4;spacingTop=-1;spacingBottom=-1;spacingLeft=-1;spacingRight=-1;labelBackgroundColor=none;rounded=0;html=1;whiteSpace=wrap;fontFamily=GOST type B;fontSource=https%3A%2F%2Fdrive.google.com%2Fuc%3Fexport%3Ddownload%26id%3D1UrnLVkHcLbHLojcf2ejICCGZ1GY9liKW;" parent="_mP06q21zTchJCsDbkNZ-1" vertex="1">
          <mxGeometry x="902" y="1039" width="66" height="16" as="geometry" />
        </mxCell>
        <mxCell id="_O9GX9oBgAqIFVcC1bcC-37" value="&lt;p style=&quot;margin-left: 0 ; margin-right: 0 ; margin-top: 0px ; margin-bottom: 0px ; text-indent: 0 ; direction: rtl&quot;&gt;&lt;font style=&quot;font-size: 14px; color: rgb(0, 0, 0); direction: ltr; letter-spacing: 0px; line-height: 120%; opacity: 1;&quot;&gt;&lt;i&gt;Пров&lt;br&gt;&lt;/i&gt;&lt;/font&gt;&lt;/p&gt;" style="verticalAlign=middle;align=left;vsdxID=42;fillColor=none;gradientColor=none;shape=stencil(nZBLDoAgDERP0z3SIyjew0SURgSD+Lu9kMZoXLhwN9O+tukAlrNpJg1SzDH4QW/URgNYgZTkjA4UkwJUgGXng+6DX1zLfmoymdXo17xh5zmRJ6Q42BWCfc2oJfdAr+Yv+AP9Cb7OJ3H/2JG1HNGz/84klThPVCc=);strokeColor=none;strokeWidth=4;spacingTop=-1;spacingBottom=-1;spacingLeft=-1;spacingRight=-1;labelBackgroundColor=none;rounded=0;html=1;whiteSpace=wrap;fontFamily=GOST type B;fontSource=https%3A%2F%2Fdrive.google.com%2Fuc%3Fexport%3Ddownload%26id%3D1UrnLVkHcLbHLojcf2ejICCGZ1GY9liKW;" parent="_mP06q21zTchJCsDbkNZ-1" vertex="1">
          <mxGeometry x="902" y="1057" width="64" height="20" as="geometry" />
        </mxCell>
        <mxCell id="_O9GX9oBgAqIFVcC1bcC-38" value="&lt;p style=&quot;margin-left: 0 ; margin-right: 0 ; margin-top: 0px ; margin-bottom: 0px ; text-indent: 0 ; direction: rtl&quot;&gt;&lt;font style=&quot;font-size: 14px; color: rgb(0, 0, 0); direction: ltr; letter-spacing: 0px; line-height: 120%; opacity: 1;&quot;&gt;&lt;i&gt;Кутняк&lt;/i&gt;&lt;/font&gt;&lt;/p&gt;" style="verticalAlign=middle;align=left;vsdxID=43;fillColor=none;gradientColor=none;shape=stencil(nZBLDoAgDERP0z3SIyjew0SURgSD+Lu9kMZoXLhwN9O+tukAlrNpJg1SzDH4QW/URgNYgZTkjA4UkwJUgGXng+6DX1zLfmoymdXo17xh5zmRJ6Q42BWCfc2oJfdAr+Yv+AP9Cb7OJ3H/2JG1HNGz/84klThPVCc=);strokeColor=none;spacingTop=-1;spacingBottom=-1;spacingLeft=-1;spacingRight=-1;labelBackgroundColor=none;rounded=0;html=1;whiteSpace=wrap;fontFamily=GOST type B;fontSource=https%3A%2F%2Fdrive.google.com%2Fuc%3Fexport%3Ddownload%26id%3D1UrnLVkHcLbHLojcf2ejICCGZ1GY9liKW;" parent="_mP06q21zTchJCsDbkNZ-1" vertex="1">
          <mxGeometry x="970" y="1037" width="88" height="20" as="geometry" />
        </mxCell>
        <mxCell id="_O9GX9oBgAqIFVcC1bcC-39" value="&lt;p style=&quot;align:right;margin-left:0;margin-right:0;margin-top:0px;margin-bottom:0px;text-indent:0;valign:middle;direction:rtl;&quot;&gt;&lt;font style=&quot;font-size: 14px; color: rgb(0, 0, 0); direction: ltr; letter-spacing: 0px; line-height: 120%; opacity: 1;&quot;&gt;&lt;i&gt;Басак&lt;/i&gt;&lt;/font&gt;&lt;/p&gt;" style="verticalAlign=middle;align=left;vsdxID=44;fillColor=none;gradientColor=none;shape=stencil(nZBLDoAgDERP0z3SIyjew0SURgSD+Lu9kMZoXLhwN9O+tukAlrNpJg1SzDH4QW/URgNYgZTkjA4UkwJUgGXng+6DX1zLfmoymdXo17xh5zmRJ6Q42BWCfc2oJfdAr+Yv+AP9Cb7OJ3H/2JG1HNGz/84klThPVCc=);strokeColor=none;spacingTop=-1;spacingBottom=-1;spacingLeft=-1;spacingRight=-1;labelBackgroundColor=none;rounded=0;html=1;whiteSpace=wrap;fontFamily=GOST type B;fontSource=https%3A%2F%2Fdrive.google.com%2Fuc%3Fexport%3Ddownload%26id%3D1UrnLVkHcLbHLojcf2ejICCGZ1GY9liKW;" parent="_mP06q21zTchJCsDbkNZ-1" vertex="1">
          <mxGeometry x="970" y="1057" width="88" height="20" as="geometry" />
        </mxCell>
        <mxCell id="_O9GX9oBgAqIFVcC1bcC-40" value="&lt;font style=&quot;font-size: 19px; color: rgb(0, 0, 0); direction: ltr; letter-spacing: 0px; line-height: 120%; opacity: 1;&quot;&gt;&lt;i&gt;ЭВМ, гр. 150503&lt;br&gt;&lt;/i&gt;&lt;/font&gt;" style="verticalAlign=middle;align=center;vsdxID=45;fillColor=none;gradientColor=none;shape=stencil(nZBLDoAgDERP0z3SIyjew0SURgSD+Lu9kMZoXLhwN9O+tukAlrNpJg1SzDH4QW/URgNYgZTkjA4UkwJUgGXng+6DX1zLfmoymdXo17xh5zmRJ6Q42BWCfc2oJfdAr+Yv+AP9Cb7OJ3H/2JG1HNGz/84klThPVCc=);strokeColor=none;spacingTop=-1;spacingBottom=-1;spacingLeft=-1;spacingRight=-1;labelBackgroundColor=none;rounded=0;html=1;whiteSpace=wrap;fontFamily=GOST type B;fontSource=https%3A%2F%2Fdrive.google.com%2Fuc%3Fexport%3Ddownload%26id%3D1UrnLVkHcLbHLojcf2ejICCGZ1GY9liKW;" parent="_mP06q21zTchJCsDbkNZ-1" vertex="1">
          <mxGeometry x="1439" y="1097" width="200" height="60" as="geometry" />
        </mxCell>
        <mxCell id="_O9GX9oBgAqIFVcC1bcC-41" value="&lt;font style=&quot;font-size: 33px; color: rgb(0, 0, 0); direction: ltr; letter-spacing: 0px; line-height: 120%; opacity: 1;&quot;&gt;&lt;i&gt;ГУИР.400201.001 ПД&lt;br&gt;&lt;/i&gt;&lt;/font&gt;" style="verticalAlign=middle;align=center;vsdxID=46;fillColor=none;gradientColor=none;shape=stencil(nZBLDoAgDERP0z3SIyjew0SURgSD+Lu9kMZoXLhwN9O+tukAlrNpJg1SzDH4QW/URgNYgZTkjA4UkwJUgGXng+6DX1zLfmoymdXo17xh5zmRJ6Q42BWCfc2oJfdAr+Yv+AP9Cb7OJ3H/2JG1HNGz/84klThPVCc=);strokeColor=none;spacingTop=-1;spacingBottom=-1;spacingLeft=-1;spacingRight=-1;labelBackgroundColor=none;rounded=0;html=1;whiteSpace=wrap;fontFamily=GOST type B;fontSource=https%3A%2F%2Fdrive.google.com%2Fuc%3Fexport%3Ddownload%26id%3D1UrnLVkHcLbHLojcf2ejICCGZ1GY9liKW;" parent="_mP06q21zTchJCsDbkNZ-1" vertex="1">
          <mxGeometry x="1160" y="937" width="480" height="60" as="geometry" />
        </mxCell>
        <mxCell id="_O9GX9oBgAqIFVcC1bcC-42" value="&lt;font style=&quot;font-size: 19px; color: rgb(0, 0, 0); direction: ltr; letter-spacing: 0px; line-height: 120%; opacity: 1;&quot;&gt;&lt;i&gt;Драйвер USB клавиатуры&lt;br&gt;Блок-схема функции&lt;br&gt;usbkeyboard_irq&lt;br&gt;&lt;/i&gt;&lt;/font&gt;" style="verticalAlign=middle;align=center;vsdxID=47;fillColor=none;gradientColor=none;shape=stencil(nZBLDoAgDERP0z3SIyjew0SURgSD+Lu9kMZoXLhwN9O+tukAlrNpJg1SzDH4QW/URgNYgZTkjA4UkwJUgGXng+6DX1zLfmoymdXo17xh5zmRJ6Q42BWCfc2oJfdAr+Yv+AP9Cb7OJ3H/2JG1HNGz/84klThPVCc=);strokeColor=none;spacingTop=-1;spacingBottom=-1;spacingLeft=-1;spacingRight=-1;labelBackgroundColor=none;rounded=0;html=1;whiteSpace=wrap;fontFamily=GOST type B;fontSource=https%3A%2F%2Fdrive.google.com%2Fuc%3Fexport%3Ddownload%26id%3D1UrnLVkHcLbHLojcf2ejICCGZ1GY9liKW;" parent="_mP06q21zTchJCsDbkNZ-1" vertex="1">
          <mxGeometry x="1160" y="997" width="280" height="100" as="geometry" />
        </mxCell>
        <mxCell id="_O9GX9oBgAqIFVcC1bcC-43" value="&lt;font style=&quot;font-size: 19px; color: rgb(0, 0, 0); direction: ltr; letter-spacing: 0px; line-height: 120%; opacity: 1;&quot;&gt;&lt;i&gt;Т&lt;br&gt;&lt;/i&gt;&lt;/font&gt;" style="verticalAlign=middle;align=center;vsdxID=48;fillColor=none;gradientColor=none;shape=stencil(nZBLDoAgDERP0z3SIyjew0SURgSD+Lu9kMZoXLhwN9O+tukAlrNpJg1SzDH4QW/URgNYgZTkjA4UkwJUgGXng+6DX1zLfmoymdXo17xh5zmRJ6Q42BWCfc2oJfdAr+Yv+AP9Cb7OJ3H/2JG1HNGz/84klThPVCc=);strokeColor=none;spacingTop=-1;spacingBottom=-1;spacingLeft=-1;spacingRight=-1;labelBackgroundColor=none;rounded=0;html=1;whiteSpace=wrap;fontFamily=GOST type B;fontSource=https%3A%2F%2Fdrive.google.com%2Fuc%3Fexport%3Ddownload%26id%3D1UrnLVkHcLbHLojcf2ejICCGZ1GY9liKW;" parent="_mP06q21zTchJCsDbkNZ-1" vertex="1">
          <mxGeometry x="1460" y="1017" width="20" height="60" as="geometry" />
        </mxCell>
        <mxCell id="_O9GX9oBgAqIFVcC1bcC-126" style="vsdxID=1;edgeStyle=none;startArrow=none;endArrow=none;startSize=5;endSize=5;strokeWidth=4;spacingTop=0;spacingBottom=0;spacingLeft=0;spacingRight=0;verticalAlign=middle;html=1;labelBackgroundColor=#ffffff;rounded=0;fontFamily=GOST type B;fontSource=https%3A%2F%2Fdrive.google.com%2Fuc%3Fexport%3Ddownload%26id%3D1UrnLVkHcLbHLojcf2ejICCGZ1GY9liKW;" parent="_mP06q21zTchJCsDbkNZ-1" edge="1">
          <mxGeometry relative="1" as="geometry">
            <mxPoint as="offset" />
            <Array as="points" />
            <mxPoint x="900" y="1157" as="sourcePoint" />
            <mxPoint x="1640" y="1157" as="targetPoint" />
          </mxGeometry>
        </mxCell>
        <mxCell id="_O9GX9oBgAqIFVcC1bcC-127" style="vsdxID=2;edgeStyle=none;startArrow=none;endArrow=none;startSize=5;endSize=5;strokeWidth=4;spacingTop=0;spacingBottom=0;spacingLeft=0;spacingRight=0;verticalAlign=middle;html=1;labelBackgroundColor=#ffffff;rounded=0;fontFamily=GOST type B;fontSource=https%3A%2F%2Fdrive.google.com%2Fuc%3Fexport%3Ddownload%26id%3D1UrnLVkHcLbHLojcf2ejICCGZ1GY9liKW;" parent="_mP06q21zTchJCsDbkNZ-1" edge="1">
          <mxGeometry relative="1" as="geometry">
            <Array as="points" />
            <mxPoint x="1640" y="1157" as="sourcePoint" />
            <mxPoint x="1640" y="9" as="targetPoint" />
          </mxGeometry>
        </mxCell>
        <mxCell id="_O9GX9oBgAqIFVcC1bcC-128" style="vsdxID=3;edgeStyle=none;startArrow=none;endArrow=none;startSize=5;endSize=5;strokeWidth=4;spacingTop=0;spacingBottom=0;spacingLeft=0;spacingRight=0;verticalAlign=middle;html=1;labelBackgroundColor=#ffffff;rounded=0;fontFamily=GOST type B;fontSource=https%3A%2F%2Fdrive.google.com%2Fuc%3Fexport%3Ddownload%26id%3D1UrnLVkHcLbHLojcf2ejICCGZ1GY9liKW;" parent="_mP06q21zTchJCsDbkNZ-1" edge="1">
          <mxGeometry relative="1" as="geometry">
            <Array as="points" />
            <mxPoint x="1640" y="9" as="sourcePoint" />
            <mxPoint x="900" y="9" as="targetPoint" />
          </mxGeometry>
        </mxCell>
        <mxCell id="_O9GX9oBgAqIFVcC1bcC-129" style="vsdxID=4;edgeStyle=none;startArrow=none;endArrow=none;startSize=5;endSize=5;strokeWidth=4;spacingTop=0;spacingBottom=0;spacingLeft=0;spacingRight=0;verticalAlign=middle;html=1;labelBackgroundColor=#ffffff;rounded=0;fontFamily=GOST type B;fontSource=https%3A%2F%2Fdrive.google.com%2Fuc%3Fexport%3Ddownload%26id%3D1UrnLVkHcLbHLojcf2ejICCGZ1GY9liKW;" parent="_mP06q21zTchJCsDbkNZ-1" edge="1">
          <mxGeometry relative="1" as="geometry">
            <Array as="points" />
            <mxPoint x="900" y="9" as="sourcePoint" />
            <mxPoint x="900" y="1157" as="targetPoint" />
          </mxGeometry>
        </mxCell>
        <mxCell id="mzuxW19cFZuREWnsl3Jm-54" style="edgeStyle=orthogonalEdgeStyle;rounded=0;orthogonalLoop=1;jettySize=auto;html=1;exitX=0.5;exitY=1;exitDx=0;exitDy=0;entryX=0.5;entryY=0;entryDx=0;entryDy=0;" parent="_mP06q21zTchJCsDbkNZ-1" source="mzuxW19cFZuREWnsl3Jm-45" target="mzuxW19cFZuREWnsl3Jm-49" edge="1">
          <mxGeometry relative="1" as="geometry" />
        </mxCell>
        <mxCell id="mzuxW19cFZuREWnsl3Jm-79" style="edgeStyle=orthogonalEdgeStyle;rounded=0;orthogonalLoop=1;jettySize=auto;html=1;exitX=1;exitY=0.5;exitDx=0;exitDy=0;" parent="_mP06q21zTchJCsDbkNZ-1" source="mzuxW19cFZuREWnsl3Jm-45" edge="1">
          <mxGeometry relative="1" as="geometry">
            <mxPoint x="1229" y="580" as="targetPoint" />
            <Array as="points">
              <mxPoint x="1416" y="375" />
              <mxPoint x="1416" y="580" />
            </Array>
          </mxGeometry>
        </mxCell>
        <mxCell id="mzuxW19cFZuREWnsl3Jm-45" value="presses[i]&lt;br&gt;является клавишей и&lt;br&gt;не найдена &lt;br&gt;в prev_presses" style="rhombus;whiteSpace=wrap;html=1;fontFamily=GOST type B;fontSource=https%3A%2F%2Fdrive.google.com%2Fuc%3Fexport%3Ddownload%26id%3D1UrnLVkHcLbHLojcf2ejICCGZ1GY9liKW;" parent="_mP06q21zTchJCsDbkNZ-1" vertex="1">
          <mxGeometry x="1239.44" y="319.97" width="160" height="110" as="geometry" />
        </mxCell>
        <mxCell id="mzuxW19cFZuREWnsl3Jm-53" style="edgeStyle=orthogonalEdgeStyle;rounded=0;orthogonalLoop=1;jettySize=auto;html=1;exitX=1;exitY=0.5;exitDx=0;exitDy=0;entryX=0.5;entryY=0;entryDx=0;entryDy=0;" parent="_mP06q21zTchJCsDbkNZ-1" source="mzuxW19cFZuREWnsl3Jm-46" target="mzuxW19cFZuREWnsl3Jm-45" edge="1">
          <mxGeometry relative="1" as="geometry">
            <mxPoint x="1228.44" y="554.47" as="targetPoint" />
          </mxGeometry>
        </mxCell>
        <mxCell id="mzuxW19cFZuREWnsl3Jm-55" style="edgeStyle=orthogonalEdgeStyle;rounded=0;orthogonalLoop=1;jettySize=auto;html=1;exitX=0.5;exitY=1;exitDx=0;exitDy=0;entryX=0.5;entryY=0;entryDx=0;entryDy=0;" parent="_mP06q21zTchJCsDbkNZ-1" source="mzuxW19cFZuREWnsl3Jm-46" target="mzuxW19cFZuREWnsl3Jm-48" edge="1">
          <mxGeometry relative="1" as="geometry" />
        </mxCell>
        <mxCell id="mzuxW19cFZuREWnsl3Jm-46" value="prev_presses[i]&lt;br style=&quot;font-size: 12px;&quot;&gt;является клавишей и&lt;br style=&quot;font-size: 12px;&quot;&gt;не найдена &lt;br style=&quot;font-size: 12px;&quot;&gt;в presses" style="rhombus;whiteSpace=wrap;html=1;fontFamily=GOST type B;fontSource=https%3A%2F%2Fdrive.google.com%2Fuc%3Fexport%3Ddownload%26id%3D1UrnLVkHcLbHLojcf2ejICCGZ1GY9liKW;fontSize=12;" parent="_mP06q21zTchJCsDbkNZ-1" vertex="1">
          <mxGeometry x="1049.44" y="319.97" width="160" height="110" as="geometry" />
        </mxCell>
        <mxCell id="mzuxW19cFZuREWnsl3Jm-77" style="edgeStyle=orthogonalEdgeStyle;rounded=0;orthogonalLoop=1;jettySize=auto;html=1;exitX=0.5;exitY=1;exitDx=0;exitDy=0;" parent="_mP06q21zTchJCsDbkNZ-1" source="mzuxW19cFZuREWnsl3Jm-48" target="mzuxW19cFZuREWnsl3Jm-61" edge="1">
          <mxGeometry relative="1" as="geometry">
            <Array as="points">
              <mxPoint x="1129" y="540" />
              <mxPoint x="1229" y="540" />
            </Array>
          </mxGeometry>
        </mxCell>
        <mxCell id="mzuxW19cFZuREWnsl3Jm-48" value="сообщить&lt;br&gt;нажатие&lt;br&gt;подсистеме ввода" style="rounded=0;whiteSpace=wrap;html=1;fontFamily=GOST type B;fontSource=https%3A%2F%2Fdrive.google.com%2Fuc%3Fexport%3Ddownload%26id%3D1UrnLVkHcLbHLojcf2ejICCGZ1GY9liKW;" parent="_mP06q21zTchJCsDbkNZ-1" vertex="1">
          <mxGeometry x="1069.44" y="464.47" width="120" height="60" as="geometry" />
        </mxCell>
        <mxCell id="mzuxW19cFZuREWnsl3Jm-78" style="edgeStyle=orthogonalEdgeStyle;rounded=0;orthogonalLoop=1;jettySize=auto;html=1;exitX=0.5;exitY=1;exitDx=0;exitDy=0;" parent="_mP06q21zTchJCsDbkNZ-1" source="mzuxW19cFZuREWnsl3Jm-49" edge="1">
          <mxGeometry relative="1" as="geometry">
            <mxPoint x="1229" y="560" as="targetPoint" />
            <Array as="points">
              <mxPoint x="1319" y="560" />
              <mxPoint x="1229" y="560" />
            </Array>
          </mxGeometry>
        </mxCell>
        <mxCell id="mzuxW19cFZuREWnsl3Jm-49" value="сообщить&lt;br&gt;отпускание&lt;br&gt;подсистеме ввода" style="rounded=0;whiteSpace=wrap;html=1;fontFamily=GOST type B;fontSource=https%3A%2F%2Fdrive.google.com%2Fuc%3Fexport%3Ddownload%26id%3D1UrnLVkHcLbHLojcf2ejICCGZ1GY9liKW;" parent="_mP06q21zTchJCsDbkNZ-1" vertex="1">
          <mxGeometry x="1259.44" y="464.47" width="120" height="60" as="geometry" />
        </mxCell>
        <mxCell id="mzuxW19cFZuREWnsl3Jm-65" style="edgeStyle=orthogonalEdgeStyle;rounded=0;orthogonalLoop=1;jettySize=auto;html=1;exitX=0.5;exitY=1;exitDx=0;exitDy=0;entryX=0.5;entryY=0;entryDx=0;entryDy=0;" parent="_mP06q21zTchJCsDbkNZ-1" source="mzuxW19cFZuREWnsl3Jm-61" target="mzuxW19cFZuREWnsl3Jm-64" edge="1">
          <mxGeometry relative="1" as="geometry" />
        </mxCell>
        <mxCell id="mzuxW19cFZuREWnsl3Jm-61" value="синхронизировать&lt;br&gt;ввод с устройства" style="rounded=0;whiteSpace=wrap;html=1;fontFamily=GOST type B;fontSource=https%3A%2F%2Fdrive.google.com%2Fuc%3Fexport%3Ddownload%26id%3D1UrnLVkHcLbHLojcf2ejICCGZ1GY9liKW;" parent="_mP06q21zTchJCsDbkNZ-1" vertex="1">
          <mxGeometry x="1169.44" y="604.47" width="120" height="60" as="geometry" />
        </mxCell>
        <mxCell id="mzuxW19cFZuREWnsl3Jm-70" style="edgeStyle=orthogonalEdgeStyle;rounded=0;orthogonalLoop=1;jettySize=auto;html=1;exitX=0.5;exitY=1;exitDx=0;exitDy=0;" parent="_mP06q21zTchJCsDbkNZ-1" source="mzuxW19cFZuREWnsl3Jm-64" target="mzuxW19cFZuREWnsl3Jm-69" edge="1">
          <mxGeometry relative="1" as="geometry" />
        </mxCell>
        <mxCell id="mzuxW19cFZuREWnsl3Jm-64" value="сохранить presses&lt;br style=&quot;font-size: 12px;&quot;&gt;в prev_presses" style="rounded=0;whiteSpace=wrap;html=1;fontFamily=GOST type B;fontSource=https%3A%2F%2Fdrive.google.com%2Fuc%3Fexport%3Ddownload%26id%3D1UrnLVkHcLbHLojcf2ejICCGZ1GY9liKW;fontSize=12;" parent="_mP06q21zTchJCsDbkNZ-1" vertex="1">
          <mxGeometry x="1169.44" y="684.47" width="120" height="60" as="geometry" />
        </mxCell>
        <mxCell id="mzuxW19cFZuREWnsl3Jm-69" value="&lt;font style=&quot;font-size: 12px;&quot;&gt;Конец&lt;/font&gt;" style="strokeWidth=1;html=1;shape=mxgraph.flowchart.terminator;whiteSpace=wrap;fontSize=12;fontFamily=GOST type B;fontSource=https%3A%2F%2Fdrive.google.com%2Fuc%3Fexport%3Ddownload%26id%3D1UrnLVkHcLbHLojcf2ejICCGZ1GY9liKW;" parent="_mP06q21zTchJCsDbkNZ-1" vertex="1">
          <mxGeometry x="1169.44" y="780" width="120" height="50" as="geometry" />
        </mxCell>
        <mxCell id="mzuxW19cFZuREWnsl3Jm-73" style="edgeStyle=orthogonalEdgeStyle;rounded=0;orthogonalLoop=1;jettySize=auto;html=1;exitX=1;exitY=0.5;exitDx=0;exitDy=0;entryX=0.5;entryY=0;entryDx=0;entryDy=0;" parent="_mP06q21zTchJCsDbkNZ-1" source="mzuxW19cFZuREWnsl3Jm-71" target="mzuxW19cFZuREWnsl3Jm-74" edge="1">
          <mxGeometry relative="1" as="geometry">
            <mxPoint x="1474" y="319.97" as="targetPoint" />
            <Array as="points">
              <mxPoint x="1446" y="230" />
              <mxPoint x="1446" y="590" />
              <mxPoint x="1367" y="590" />
            </Array>
          </mxGeometry>
        </mxCell>
        <mxCell id="mzuxW19cFZuREWnsl3Jm-85" value="&lt;font style=&quot;font-size: 12px;&quot; data-font-src=&quot;https://drive.google.com/uc?export=download&amp;amp;id=1UrnLVkHcLbHLojcf2ejICCGZ1GY9liKW&quot;&gt;по умолчанию&lt;/font&gt;" style="edgeLabel;html=1;align=center;verticalAlign=middle;resizable=0;points=[];fontSize=12;fontFamily=GOST type B;fontSource=https%3A%2F%2Fdrive.google.com%2Fuc%3Fexport%3Ddownload%26id%3D1UrnLVkHcLbHLojcf2ejICCGZ1GY9liKW;labelBackgroundColor=none;" parent="mzuxW19cFZuREWnsl3Jm-73" vertex="1" connectable="0">
          <mxGeometry x="-0.3115" y="-1" relative="1" as="geometry">
            <mxPoint x="-39" y="-6" as="offset" />
          </mxGeometry>
        </mxCell>
        <mxCell id="mzuxW19cFZuREWnsl3Jm-81" style="edgeStyle=orthogonalEdgeStyle;rounded=0;orthogonalLoop=1;jettySize=auto;html=1;exitX=0;exitY=0.5;exitDx=0;exitDy=0;entryX=0.5;entryY=0;entryDx=0;entryDy=0;entryPerimeter=0;" parent="_mP06q21zTchJCsDbkNZ-1" source="mzuxW19cFZuREWnsl3Jm-71" target="mzuxW19cFZuREWnsl3Jm-69" edge="1">
          <mxGeometry relative="1" as="geometry">
            <Array as="points">
              <mxPoint x="1036" y="230" />
              <mxPoint x="1036" y="760" />
              <mxPoint x="1229" y="760" />
            </Array>
          </mxGeometry>
        </mxCell>
        <mxCell id="mzuxW19cFZuREWnsl3Jm-84" value="&lt;font style=&quot;font-size: 12px;&quot; data-font-src=&quot;https://drive.google.com/uc?export=download&amp;amp;id=1UrnLVkHcLbHLojcf2ejICCGZ1GY9liKW&quot;&gt;ECONNRESET&lt;br style=&quot;font-size: 12px;&quot;&gt;ENOENT&lt;br style=&quot;font-size: 12px;&quot;&gt;ESHUTDOWN&lt;/font&gt;" style="edgeLabel;html=1;align=center;verticalAlign=middle;resizable=0;points=[];fontFamily=GOST type B;fontSource=https%3A%2F%2Fdrive.google.com%2Fuc%3Fexport%3Ddownload%26id%3D1UrnLVkHcLbHLojcf2ejICCGZ1GY9liKW;fontSize=12;labelBackgroundColor=none;" parent="mzuxW19cFZuREWnsl3Jm-81" vertex="1" connectable="0">
          <mxGeometry x="-0.5608" y="-1" relative="1" as="geometry">
            <mxPoint x="41" y="-11" as="offset" />
          </mxGeometry>
        </mxCell>
        <mxCell id="mzuxW19cFZuREWnsl3Jm-82" style="edgeStyle=orthogonalEdgeStyle;rounded=0;orthogonalLoop=1;jettySize=auto;html=1;exitX=0.5;exitY=1;exitDx=0;exitDy=0;entryX=0.5;entryY=0;entryDx=0;entryDy=0;" parent="_mP06q21zTchJCsDbkNZ-1" source="mzuxW19cFZuREWnsl3Jm-71" target="mzuxW19cFZuREWnsl3Jm-46" edge="1">
          <mxGeometry relative="1" as="geometry" />
        </mxCell>
        <mxCell id="mzuxW19cFZuREWnsl3Jm-83" value="0" style="edgeLabel;html=1;align=center;verticalAlign=middle;resizable=0;points=[];labelBackgroundColor=none;" parent="mzuxW19cFZuREWnsl3Jm-82" vertex="1" connectable="0">
          <mxGeometry x="-0.1817" y="1" relative="1" as="geometry">
            <mxPoint x="46" y="-21" as="offset" />
          </mxGeometry>
        </mxCell>
        <mxCell id="mzuxW19cFZuREWnsl3Jm-71" value="статус urb" style="rhombus;whiteSpace=wrap;html=1;fontFamily=GOST type B;fontSource=https%3A%2F%2Fdrive.google.com%2Fuc%3Fexport%3Ddownload%26id%3D1UrnLVkHcLbHLojcf2ejICCGZ1GY9liKW;" parent="_mP06q21zTchJCsDbkNZ-1" vertex="1">
          <mxGeometry x="1180.41" y="200" width="98.06" height="60" as="geometry" />
        </mxCell>
        <mxCell id="mzuxW19cFZuREWnsl3Jm-80" style="edgeStyle=orthogonalEdgeStyle;rounded=0;orthogonalLoop=1;jettySize=auto;html=1;exitX=0.5;exitY=1;exitDx=0;exitDy=0;" parent="_mP06q21zTchJCsDbkNZ-1" source="mzuxW19cFZuREWnsl3Jm-74" edge="1">
          <mxGeometry relative="1" as="geometry">
            <mxPoint x="1229" y="760" as="targetPoint" />
            <Array as="points">
              <mxPoint x="1367" y="760" />
            </Array>
          </mxGeometry>
        </mxCell>
        <mxCell id="mzuxW19cFZuREWnsl3Jm-74" value="повторить регистрацию urb" style="rounded=0;whiteSpace=wrap;html=1;fontFamily=GOST type B;fontSource=https%3A%2F%2Fdrive.google.com%2Fuc%3Fexport%3Ddownload%26id%3D1UrnLVkHcLbHLojcf2ejICCGZ1GY9liKW;" parent="_mP06q21zTchJCsDbkNZ-1" vertex="1">
          <mxGeometry x="1317" y="604.47" width="99" height="50" as="geometry" />
        </mxCell>
        <mxCell id="mzuxW19cFZuREWnsl3Jm-87" style="edgeStyle=orthogonalEdgeStyle;rounded=0;orthogonalLoop=1;jettySize=auto;html=1;exitX=0.5;exitY=1;exitDx=0;exitDy=0;exitPerimeter=0;entryX=0.5;entryY=0;entryDx=0;entryDy=0;" parent="_mP06q21zTchJCsDbkNZ-1" source="mzuxW19cFZuREWnsl3Jm-86" target="mzuxW19cFZuREWnsl3Jm-71" edge="1">
          <mxGeometry relative="1" as="geometry" />
        </mxCell>
        <mxCell id="mzuxW19cFZuREWnsl3Jm-86" value="&lt;font style=&quot;font-size: 12px;&quot;&gt;Начало&lt;/font&gt;" style="strokeWidth=1;html=1;shape=mxgraph.flowchart.terminator;whiteSpace=wrap;fontSize=12;fontFamily=GOST type B;fontSource=https%3A%2F%2Fdrive.google.com%2Fuc%3Fexport%3Ddownload%26id%3D1UrnLVkHcLbHLojcf2ejICCGZ1GY9liKW;" parent="_mP06q21zTchJCsDbkNZ-1" vertex="1">
          <mxGeometry x="1169.44" y="130" width="120" height="50" as="geometry" />
        </mxCell>
      </root>
    </mxGraphModel>
  </diagram>
</mxfile>
